<svg id="visual" viewBox="0 0 900 600" width="900" height="600" xmlns="http://www.w3.org/2000/svg" xmlns:xlink="http://www.w3.org/1999/xlink" version="1.1"><rect x="0" y="0" width="900" height="600" fill="#001122"></rect><defs><linearGradient id="grad1_0" x1="33.3%" y1="0%" x2="100%" y2="100%"><stop offset="20%" stop-color="#001122" stop-opacity="1"></stop><stop offset="80%" stop-color="#001122" stop-opacity="1"></stop></linearGradient></defs><defs><linearGradient id="grad2_0" x1="0%" y1="0%" x2="66.7%" y2="100%"><stop offset="20%" stop-color="#001122" stop-opacity="1"></stop><stop offset="80%" stop-color="#001122" stop-opacity="1"></stop></linearGradient></defs><g transform="translate(900, 0)"><path d="M0 432.7C-39 391.5 -78.1 350.4 -140.1 338.1C-202 325.9 -286.9 342.6 -305.9 305.9C-325 269.3 -278.1 179.3 -288.3 119.4C-298.4 59.5 -365.5 29.8 -432.7 0L0 0Z" fill="#f1c40f"></path></g><g transform="translate(0, 600)"><path d="M0 -432.7C62 -434 124 -435.3 165.6 -399.7C207.1 -364.2 228.2 -291.8 239 -239C249.8 -186.2 250.3 -152.9 280.9 -116.3C311.4 -79.8 372 -39.9 432.7 0L0 0Z" fill="#f1c40f"></path></g></svg>